<svg xmlns="http://www.w3.org/2000/svg" viewBox="0 0 427.8 427.9"><linearGradient id="a" gradientUnits="userSpaceOnUse" x1="-.044" y1="213.954" x2="427.8" y2="213.954"><stop offset="0" stop-color="#64c0ed"/><stop offset="1" stop-color="#0088c2"/></linearGradient><path d="M427.8 46.8V381c-.2.3-.6.7-.6 1-2.7 23-23.7 46.4-55.9 45.9-33-.5-66-.1-99-.1h-4.6V267.5c1.1 0 1.9-.1 2.7-.1 15 0 30.1-.1 45.1.1 2.9 0 4-.8 4.7-3.6 3.8-15.5 7.8-31 11.8-46.5.3-1 .4-2.1.6-3.5h-65.3v-3.2c0-19.8-.1-39.6 0-59.3s13.6-33.3 33.3-33.5c8.8-.1 17.5 0 26.3 0 1.5 0 2.9-.1 4.3-.2V64.4c-12.4 0-24.5-.2-36.6.1a71.8 71.8 0 00-30.2 7.3c-33.2 16.2-50 43-50.6 79.9-.3 19.2-.1 38.4-.1 57.6v4.7h-53.2v53.5h53v160.3h-3c-52.4 0-104.7.1-157.1-.1-5.8-.1-11.6-1-17.2-2.9C13.9 417.4 0 397.2 0 372.4V64.1c0-3.9-.1-7.8 0-11.7C.5 29.7 15.2 9.8 36.8 2.7c3.3-1.1 6.7-1.8 10-2.7H381c.6.3 1.2.6 1.8.8 20.9 3.9 34.8 16 42.1 35.8 1.3 3.2 2 6.8 2.9 10.2zM289 406.1c1 .1 1.6.2 2.1.2h82.3c2.8 0 5.6-.3 8.3-.9 15.9-4.1 24.6-16.1 24.6-33.8V56.2c.1-3.5-.2-6.9-1-10.3-4.1-15.7-16.1-24.4-33.5-24.4H56c-3.3-.1-6.7.3-9.9 1-15.9 4.1-24.7 16.1-24.7 33.7v315.4c-.1 3.5.2 6.9 1 10.3 4.1 15.6 16 24.4 33.1 24.4 44.3.1 88.6.1 132.9 0 1.2 0 2.4-.2 3.7-.3V288.8h-4.9c-14.8 0-29.5-.1-44.3.1-3.1 0-4.1-.8-4.1-4 .1-29.5.1-59.1 0-88.6 0-3.2 1-4 4.1-3.9 14.9.1 29.8.1 44.7.1h4.8v-39.8c0-25.6 7.1-48.9 23.2-69 19.3-24.1 44.5-38.2 75.4-40.1 19.8-1.2 39.8-.6 59.7-.7.6 0 1.2.1 1.8.3v96h-49.8c-10.2 0-14 3.8-14 14.1V188c0 1.5.1 2.9.2 4.8h71c.1.5.1 1.1 0 1.6-7.8 30.6-15.6 61.2-23.4 91.7-.6 2.4-1.9 2.9-4.2 2.9-13-.1-25.9 0-38.9 0h-4.6l.2 117.1z" fill="url(#a)"/></svg>