<svg version="1.1" id="Слой_1" xmlns="http://www.w3.org/2000/svg" x="0" y="0" viewBox="0 0 408.9 409" xml:space="preserve"><style/><g id="Слой_2_00000051351752489100254390000000375839260844188809_"><g id="Слой_1-2"><g id="_24"><linearGradient id="SVGID_1_" gradientUnits="userSpaceOnUse" x1="-.015" y1="204.484" x2="409" y2="204.484"><stop offset="0" stop-color="#64c0ed"/><stop offset="1" stop-color="#0088c2"/></linearGradient><path d="M305.1 409H103.9c-8.6-1.8-17.4-2.7-25.6-5.4C30.8 387.9.3 346.2.1 296.4-.1 235.2 0 174 .1 112.8c0-19.4 4.2-37.9 14.1-54.6C36.4 20.2 69.9.5 114 .2c60.4-.4 120.8-.2 181.2 0 7.6-.1 15.1.6 22.6 2.1 45.8 10.2 75.2 38.1 87.8 83.3 1.7 6 2.3 12.2 3.4 18.4v201.3c-.7 4.2-1.1 8.4-2 12.5-10.4 45.8-38.2 75.2-83.4 87.9-6.1 1.6-12.4 2.2-18.5 3.3zM204.6 24.2c-29.9 0-59.9-.1-89.8.1-7.1-.1-14.1.6-21 2.1-41.9 9.5-69.5 44.2-69.6 87.5-.1 60.4-.1 120.8 0 181.3 0 13 2.1 25.8 7.8 37.6 16.6 34.1 44.2 51.8 82 52 60.3.4 120.6.2 180.8 0 6.8.1 13.6-.6 20.2-2 41.8-9.4 69.6-44 69.8-87 .2-60.8.2-121.6 0-182.5-.1-30.5-12.7-55-37.5-73C331.7 29 314 24.2 294.8 24.2h-90.2z" fill="url(#SVGID_1_)"/><linearGradient id="SVGID_00000150091085568398565100000008570246298043642757_" gradientUnits="userSpaceOnUse" x1="92.4" y1="204.549" x2="316.5" y2="204.549"><stop offset="0" stop-color="#64c0ed"/><stop offset="1" stop-color="#0088c2"/></linearGradient><path d="M316.5 204.5c0 61.8-50.6 112.4-112.2 112.1-61.8-.2-111.8-50.2-111.9-112S143.1 92.1 204.6 92.5c61.8.2 111.8 50.3 111.9 112zm-111.9 88c48.6 0 87.9-39.4 87.8-88 0-48.6-39.4-87.9-88-87.8-48.5 0-87.8 39.3-87.8 87.8 0 48.6 39.4 88 88 88z" fill="url(#SVGID_00000150091085568398565100000008570246298043642757_)"/><linearGradient id="SVGID_00000064342057630530902500000015397834458379179177_" gradientUnits="userSpaceOnUse" x1="289.3" y1="85.75" x2="357.4" y2="85.75"><stop offset="0" stop-color="#64c0ed"/><stop offset="1" stop-color="#0088c2"/></linearGradient><path d="M323.3 51.7c18.8 0 34.1 15.2 34.1 34s-15.2 34.1-34 34.1c-18.4 0-34-15.5-34.1-34s15.3-34 34-34.1zm-.1 24.2c-5.4.1-9.7 4.6-9.7 10 .3 5.3 4.5 9.4 9.8 9.7 5.4-.1 9.8-4.5 9.9-9.9-.1-5.5-4.6-9.9-10-9.8z" fill="url(#SVGID_00000064342057630530902500000015397834458379179177_)"/></g></g></g></svg>