<svg version="1.1" id="Слой_1" xmlns="http://www.w3.org/2000/svg" x="0" y="0" viewBox="0 0 409.6 408.8" xml:space="preserve"><style/><g id="Слой_2_00000050649299596606624370000008602960661104598682_"><g id="Слой_1-2"><g id="_18"><linearGradient id="SVGID_1_" gradientUnits="userSpaceOnUse" x1="-.08" y1="204.41" x2="409.6" y2="204.41"><stop offset="0" stop-color="#64c0ed"/><stop offset="1" stop-color="#0088c2"/></linearGradient><path d="M409.6 46.3v316.2c-.8 1.5-1.5 3.1-2 4.7-5.9 25.3-26.7 41.6-53.3 41.6H69c-6 0-12 .1-18-.1-21.5-.6-40.4-14.3-47.8-34.5-1.4-3.8-2.2-7.9-3.3-11.8V46.3c.3-.6.5-1.2.7-1.8C4.5 24 16.2 10.2 35.7 2.9 39.1 1.6 42.8 1 46.3 0h316.2c.4.3.9.5 1.4.7 23.5 4.2 39.6 20 44.2 43.3.1.8 1 1.5 1.5 2.3zM16 204.4v149.7c0 22.7 15.7 38.7 38.2 38.7 100.2.1 200.4.1 300.6 0 22.1 0 38-16 38-38.1.1-100.2.1-200.4 0-300.6 0-22.1-15.9-38.1-38-38.1-100.2-.1-200.4 0-300.6.1-6 0-11.9 1.3-17.3 3.8C22.5 26.7 16 39 16 54.7c-.1 49.9-.1 99.8 0 149.7z" fill="url(#SVGID_1_)"/><linearGradient id="SVGID_00000083800390174718949660000012923347622149630621_" gradientUnits="userSpaceOnUse" x1="157.715" y1="246.89" x2="345.909" y2="246.89"><stop offset="0" stop-color="#64c0ed"/><stop offset="1" stop-color="#0088c2"/></linearGradient><path d="M231.8 167.4c4.4-3.2 8-6.5 12.1-8.8 24.8-13.6 49.9-15.1 74.6-.2 14.7 8.8 21.8 23.4 24.8 39.8 1.7 9.4 2.5 19 2.6 28.5.3 36 .1 72.1.1 108.1 0 8.5-2.4 11-10.9 11H286c-7.5 0-10.4-2.8-10.4-10.4 0-33.8 0-67.6-.1-101.4.1-3.8-.6-7.7-2.1-11.2-6.3-13.7-25.8-14.9-36-2.3-4.4 5.4-6 11.7-5.9 18.6.1 31.7.1 63.3 0 95 0 1.7-.1 3.4-.4 5.1-.8 4.1-3.4 6.5-7.4 6.5-19.4.1-38.8.1-58.3 0-4.2 0-6.8-2.8-7.4-7-.2-1.5-.2-2.9-.2-4.4V163.9c0-9.3 2.3-11.6 11.5-11.6h51.1c9.2 0 11.4 2.2 11.5 11.6l-.1 3.5zm-16.3 162.3v-90.6c0-16.6 6.6-29.6 21.1-38.1 12.4-7.3 29.8-6.4 41 2.3 9.9 7.7 14 18.1 14 30.3v95.9h38.3c0-1.1.1-1.9.1-2.7 0-34.1.1-68.1-.1-102.2-.1-6.9-.6-13.8-1.7-20.6-1.8-11.5-5.9-22.1-15.2-29.9-16.8-14-48.8-13.2-66 2-6 5.4-11.1 11.8-16.6 17.7-2.4 2.7-5.2 4.1-8.9 2.9s-5.3-3.9-5.6-7.5c-.1-1.9-.1-3.7-.1-5.6v-15H174v161h41.5z" fill="url(#SVGID_00000083800390174718949660000012923347622149630621_)"/><linearGradient id="SVGID_00000138536202919513924460000009196875186331436426_" gradientUnits="userSpaceOnUse" x1="66.29" y1="249.13" x2="140.48" y2="249.13"><stop offset="0" stop-color="#64c0ed"/><stop offset="1" stop-color="#0088c2"/></linearGradient><path d="M82.3 329.8h41.9V168.7H82.3v55c.1 1.6 0 3.2-.3 4.8-.7 3.5-3.8 6.1-7.3 6.3-3.6.1-6.8-2.3-7.7-5.7-.4-1.5-.6-3.1-.6-4.7v-61.5c0-7.6 2.8-10.4 10.3-10.4h53.5c7.5 0 10.4 2.8 10.4 10.4v172.9c0 7.5-2.9 10.3-10.4 10.3H76.7c-7.3 0-10.2-2.9-10.2-10.1v-41.1c.5-4.7 3.8-7.9 8-7.9 4.4 0 7.8 3.4 7.9 8.4.1 10 .1 20 .1 29.9l-.2 4.5z" fill="url(#SVGID_00000138536202919513924460000009196875186331436426_)"/><linearGradient id="SVGID_00000137814195219321378750000014553602092109613981_" gradientUnits="userSpaceOnUse" x1="62.999" y1="103.42" x2="143.839" y2="103.42"><stop offset="0" stop-color="#64c0ed"/><stop offset="1" stop-color="#0088c2"/></linearGradient><path d="M103.6 63c22.3.1 40.3 18.3 40.3 40.6s-18.3 40.3-40.6 40.3-40.4-18.3-40.3-40.6v-.2C63.2 80.9 81.3 63 103.6 63zm-.3 16c-13.5 0-24.4 11-24.4 24.5s11 24.4 24.5 24.4c13.4 0 24.3-10.9 24.4-24.3.1-13.5-10.7-24.5-24.2-24.6h-.3z" fill="url(#SVGID_00000137814195219321378750000014553602092109613981_)"/><linearGradient id="SVGID_00000088120642317725485860000005611252403633023109_" gradientUnits="userSpaceOnUse" x1="237.325" y1="46.337" x2="318.16" y2="46.337"><stop offset="0" stop-color="#64c0ed"/><stop offset="1" stop-color="#0088c2"/></linearGradient><path d="M277.6 54.3c-10.4 0-20.8.1-31.1 0-6.7-.1-10.7-5.1-8.6-10.7 1.1-3.3 4.3-5.4 7.7-5.2 21.4-.1 42.8-.1 64.3 0 5 0 8.3 3.4 8.3 7.9s-3.4 7.9-8.6 8c-10.7.1-21.4 0-32 0z" fill="url(#SVGID_00000088120642317725485860000005611252403633023109_)"/><linearGradient id="SVGID_00000117665101245669160730000001598868041233685433_" gradientUnits="userSpaceOnUse" x1="200.94" y1="46.27" x2="216.94" y2="46.27"><stop offset="0" stop-color="#64c0ed"/><stop offset="1" stop-color="#0088c2"/></linearGradient><path d="M208.9 38.4c4.3.1 7.8 3.5 8 7.8-.1 4.4-3.7 8-8.2 8-4.4 0-7.9-3.6-7.8-8 .1-4.4 3.7-7.9 8-7.8z" fill="url(#SVGID_00000117665101245669160730000001598868041233685433_)"/><linearGradient id="SVGID_00000106122652039732935840000010688012193752959384_" gradientUnits="userSpaceOnUse" x1="66.38" y1="262.69" x2="82.221" y2="262.69"><stop offset="0" stop-color="#64c0ed"/><stop offset="1" stop-color="#0088c2"/></linearGradient><path d="M82.2 262.6c0 4.4-3.5 8-7.8 8-4.4 0-8-3.5-8-7.8 0-4.4 3.5-8 7.8-8 4.3.1 7.8 3.5 8 7.8z" fill="url(#SVGID_00000106122652039732935840000010688012193752959384_)"/></g></g></g></svg>