<svg version="1.1" id="Слой_1" xmlns="http://www.w3.org/2000/svg" x="0" y="0" viewBox="0 0 408.8 357.3" xml:space="preserve"><style/><g id="Слой_2_00000151545643111549758290000000655587196391266722_"><g id="Слой_1-2"><g id="_22"><linearGradient id="SVGID_1_" gradientUnits="userSpaceOnUse" x1="-.014" y1="178.69" x2="408.8" y2="178.69"><stop offset="0" stop-color="#64c0ed"/><stop offset="1" stop-color="#0088c2"/></linearGradient><path d="M408.8 22c-2.4 10.9-4.9 21.7-7.1 32.6-15.3 73.6-30.6 147.2-45.9 220.9-4.4 21.3-8.9 42.7-13.3 64-2.5 12-10 18.9-20.7 17.7-4.2-.7-8.1-2.3-11.5-4.9-28.6-20.5-57.1-41.3-85.6-62-6.9-5-8.3-4.9-14.9.5-15.4 12.5-30.7 25.1-46.1 37.5-9.7 7.8-21.7 6.5-28.3-3-1.6-2.6-2.8-5.4-3.6-8.3-10.7-34-21.2-68-31.7-102-.5-2.3-2.3-4.1-4.6-4.8-27.4-10.1-54.8-20.3-82.1-30.6-10.5-4-15.5-13.4-12.6-23.4 1.9-6.5 6.5-10.4 12.7-12.8 23.3-8.9 46.6-17.9 69.9-27 98.5-38 197-76 295.5-114.1 14-5.5 26.4-.9 29.9 13.4V22zm-16.6-2c.3-3.6-.8-4.6-3.9-3.7-.9.3-1.8.6-2.6 1C264.1 64.1 142.6 111 21 157.9c-1 .3-2 .8-2.9 1.3-2.2 1.4-2.2 3.3 0 4.6 1 .5 1.9.9 3 1.2 28.2 10.6 56.5 21.2 84.8 31.6 4.6 1.7 7.1 4.5 8.5 9.1 11 35.7 22.1 71.3 33.2 106.9 1.7 5.5 2.6 5.8 7.2 2l45.2-36.8c11.9-9.7 21.5-10 33.9-1 28.6 20.8 57.3 41.6 85.9 62.3 4.4 3.2 5.6 2.7 6.8-2.6l11.2-54.2 47.6-229.1c2.3-11.2 4.6-22.4 6.8-33.2z" fill="url(#SVGID_1_)"/><linearGradient id="SVGID_00000064316515862746030240000015425311402429298589_" gradientUnits="userSpaceOnUse" x1="127.6" y1="173.174" x2="324.514" y2="173.174"><stop offset="0" stop-color="#64c0ed"/><stop offset="1" stop-color="#0088c2"/></linearGradient><path d="M127.6 197.3c.3-10.5 4.7-17.7 12.7-22.8 6.6-4.2 13.4-8.2 20-12.3l145-89.2c6.3-3.9 10.8-4 15.1-.5 4.6 3.6 5.5 10.3 1.9 15-1 1.3-2.1 2.4-3.3 3.5-44.1 41-88.1 82.2-132.4 123-7 6.5-10.7 13.7-11.6 23.1-.9 9.6-2.2 19.3-4 28.8-1.7 9.1-11.4 13.4-18.6 8.3-2.7-2.1-4.7-4.9-5.8-8.2-6.2-20.6-11.9-41.3-17.8-62-.6-2.3-.9-4.5-1.2-6.7zm29.2 45.5h.9c.4-3.1 1-6.2 1.3-9.3 1-12.2 6.2-22.1 15.4-30.5 30.7-28.2 61.1-56.6 91.6-85 .8-.6 1.6-1.2 2.5-1.7l-.7-.8c-.5.2-.9.3-1.3.6-39.2 24.1-78.4 48.2-117.5 72.4-4.7 2.9-5.8 6.3-4.1 12.1 3.1 10.9 6.2 21.7 9.3 32.6.7 3.1 1.7 6.3 2.6 9.6z" fill="url(#SVGID_00000064316515862746030240000015425311402429298589_)"/><linearGradient id="SVGID_00000033326830559449483670000016487643096736219292_" gradientUnits="userSpaceOnUse" x1="304.865" y1="263.933" x2="339.336" y2="263.933"><stop offset="0" stop-color="#64c0ed"/><stop offset="1" stop-color="#0088c2"/></linearGradient><path d="M304.9 305c1.8-8.5 3.9-18.2 6-27.9 3.9-18 7.8-36 11.8-54.1.4-1.8.9-3.6 1.5-5.3 1.4-3.5 5.1-5.4 8.7-4.8 3.8.7 6.8 4 6.4 7.9-.7 5.6-2 11.2-3.2 16.8-5 23.2-10.1 46.4-15.1 69.6-1.4 6.4-6.1 9.3-11.2 7.2-3.6-1.4-5.2-4.2-4.9-9.4z" fill="url(#SVGID_00000033326830559449483670000016487643096736219292_)"/><linearGradient id="SVGID_00000134246093495751214620000012960432615735073178_" gradientUnits="userSpaceOnUse" x1="330.497" y1="186.256" x2="347.523" y2="186.256"><stop offset="0" stop-color="#64c0ed"/><stop offset="1" stop-color="#0088c2"/></linearGradient><path d="M330.5 187.1c.4-2.3 1-4.5 1.8-6.7 1.3-3.7 5.2-5.8 9-4.9 3.8.7 6.5 4.2 6.2 8.1-.1 2.6-.6 5.3-1.4 7.8-1.1 4.1-5.2 6.6-9.3 5.6-4-.9-6.4-4.1-6.3-9.9z" fill="url(#SVGID_00000134246093495751214620000012960432615735073178_)"/></g></g></g></svg>