<svg version="1.1" id="Слой_1" xmlns="http://www.w3.org/2000/svg" x="0" y="0" viewBox="0 0 335.5 381.8" xml:space="preserve"><style/><g id="Слой_2_00000069377982606567822760000015349005905600222868_"><g id="Слой_1-2"><g id="_23"><linearGradient id="SVGID_1_" gradientUnits="userSpaceOnUse" x1=".009" y1="280.75" x2="193.708" y2="280.75"><stop offset="0" stop-color="#64c0ed"/><stop offset="1" stop-color="#0088c2"/></linearGradient><path d="M110.9 381.8c-7.6-1.5-15.2-2.6-22.6-4.6C41.6 364.6 6 323 .8 274.9c-3.7-34.4 5.6-64.9 27.6-91.5 1.6-1.9 4.5-3.7 6.8-3.7s5 2 6.5 3.9c2 2.4 1.1 5.5-.8 8-2.6 3.4-5.3 6.6-7.7 10.1-43.6 63.9-4.8 152.4 71.8 163.7 27.3 4 52.5-1.5 75.6-16.5 5-3.2 8.8-2.9 11.5.9s2 8.2-2.1 11c-14.7 10-31.4 16.7-48.9 19.4l-9.1 1.5h-21.1v.1z" fill="url(#SVGID_1_)"/><linearGradient id="SVGID_00000157285416262134298090000017954427856919269780_" gradientUnits="userSpaceOnUse" x1="59.58" y1="161.094" x2="335.5" y2="161.094"><stop offset="0" stop-color="#64c0ed"/><stop offset="1" stop-color="#0088c2"/></linearGradient><path d="M131 199.7v-45c-8.3.4-16.5.5-24.6 1.4-5.8.7-11.4 2.4-17.1 3.8-5.2 1.3-8.9-.3-10.3-5.1-1.3-4.2.8-7.5 5.8-9.1 17.5-5.7 36.1-7.2 54.3-4.4 5.2.8 7.1 3.3 7.1 8.8v57.6c0 7.4-4 10.2-11.2 8.3-19.3-5.1-36-.4-49 14.6-11.9 13.7-14.5 29.7-8.2 46.6s19 27 36.8 29.7c29.1 4.4 53.9-17.4 53.9-47 .1-82.9.1-165.9.1-248.9 0-8.9 2.1-11 11.1-11h53.5c7 0 9.4 2.2 9.7 9.3 2.1 40.8 29.7 73.1 69.4 80.9 4.7.8 9.4 1.2 14.1 1.4 6.5.5 9 3 9 9.4.1 18.8.1 37.7.1 56.5 0 5.9-2.9 8.7-8.8 8.6-28.2-.2-55.8-7.9-80.1-22.3-.9-.5-1.7-1-2.6-1.5-.4-.2-.9-.3-1.4-.4v4.3c.2 37.4.3 74.8.5 112.3.2 17-3.1 33.9-9.7 49.5-.5 1.4-1.3 2.7-2.2 3.8-2.4 2.6-6.3 3.1-9.2 1.2-3.3-1.9-4.2-5.4-2.9-9.5 2.5-8 5.5-16 7.2-24.3 1.3-7 1.9-14.1 1.8-21.2 0-42.3-.2-84.6-.3-126.9v-3.4c0-3.2 1.2-5.9 4.2-7.4s5.8-.8 8.4 1.1c9.4 7.2 19.7 13.2 30.6 17.9 15 6.4 31 10.3 47.4 11.4h2v-43.9c-53.1-8.4-83.8-38.8-92.7-92h-44.1v4.7c0 79.8 0 159.7-.1 239.5 0 31.6-20.7 56.4-51.8 62.2-38.7 7.2-75.3-26-71.9-65.2 3.1-35.9 34-60.9 69.7-56.6.3.3.7.3 1.5.3z" fill="url(#SVGID_00000157285416262134298090000017954427856919269780_)"/><linearGradient id="SVGID_00000094596477771451595450000004058403056960878261_" gradientUnits="userSpaceOnUse" x1="202.2" y1="332.401" x2="217.6" y2="332.401"><stop offset="0" stop-color="#64c0ed"/><stop offset="1" stop-color="#0088c2"/></linearGradient><path d="M217.6 332.1c-.1 4.3-3.5 7.8-7.8 8-4.1.1-7.5-3.2-7.6-7.3v-.3c.2-4.3 3.7-7.7 8-7.8 4.1 0 7.4 3.3 7.4 7.4z" fill="url(#SVGID_00000094596477771451595450000004058403056960878261_)"/><linearGradient id="SVGID_00000160160721324170108030000013195629139351663539_" gradientUnits="userSpaceOnUse" x1="51.1" y1="166.1" x2="66" y2="166.1"><stop offset="0" stop-color="#64c0ed"/><stop offset="1" stop-color="#0088c2"/></linearGradient><path d="M58.5 173.6c-4.2-.2-7.4-3.7-7.4-7.9.2-4 3.7-7.2 7.7-7.1 4 .3 7.2 3.6 7.2 7.7-.1 4.1-3.4 7.4-7.5 7.3z" fill="url(#SVGID_00000160160721324170108030000013195629139351663539_)"/></g></g></g></svg>