<svg xmlns="http://www.w3.org/2000/svg" viewBox="0 0 409.6 338.9"><linearGradient id="a" gradientUnits="userSpaceOnUse" x1="-.03" y1="169.45" x2="409.6" y2="169.45"><stop offset="0" stop-color="#64c0ed"/><stop offset="1" stop-color="#0088c2"/></linearGradient><path d="M409.6 48.8c-.5.2-1.2.3-1.4.6-7.1 14.4-18.2 25.7-29.8 36.1-7.9 7.1-10.6 14.5-11.1 24.9-2.3 44.7-14.6 86.6-38.9 124.5-22.4 34.9-52.8 60.9-90 78.9-20.3 9.9-41.4 17.6-63.6 21.4-27.5 4.7-55.5 4.9-83 .5-28.4-4.5-55.2-13.4-79.2-29.5-4.5-3-8.4-7.1-12.6-10.6v-4.8c2.5-5 6.5-6.3 11.9-5.7 20.7 2.5 41.1 1.7 61.3-3.9 10.9-2.9 21.3-7.7 30.6-14.1.7-.5 1.4-1.1 2.4-1.9-4-1.4-7.6-2.6-11.1-4-25-10.2-41-28.6-49-54.2-1.6-5.1 0-8.1 6.1-11.6l-3.7-3.1c-17.9-14.9-27.5-34.1-30-57-.4-3.2-.3-6.4-.7-9.5-1.3-9.3 6.1-16 15.9-9.7-1-1.6-2-3.2-2.9-4.8C14.1 82.3 12 53 28 23.1c4.3-8.1 10.2-8.9 16.3-2.2 21.9 23.7 46.6 44 75.3 59.1 21.9 11.5 44.9 19.1 69.9 20.1h2.8c0-1.5.1-2.9 0-4.3-2.1-36.4 12.2-64.4 43-83.7 29.6-18.5 71.3-15.6 97.8 7.2 5.3 4.6 10.2 4.6 16 3.6 11.7-2 22.8-6.4 32.6-13.1.8-.5 1.5-1 2.3-1.5 3.1-1.9 6.2-2.3 9.4-.3s4.1 4.8 3.8 8.2c-.7 9.2-5.2 16.9-10.5 24.2-1.2 1.4-2.1 3.1-2.7 4.9 3.5-1.6 7.1-3.1 10.5-4.9 6.5-3.4 9.2-2.8 13.8 3.2.3.3.9.4 1.4.6l-.1 4.6zM66.3 214.6c4.6 5.8 8.6 12 13.7 17.1 11.6 11.6 25.9 17.3 42.2 18.5 4.5.3 8.8 1 10.7 6.1 1.8 4.8-.8 8.1-3.9 11.3-15.6 16.3-34.8 26-56.5 31.1-9.7 2.3-19.7 3.4-30.1 5.1 4.2 1.8 8 3.6 12.1 5.1 39.2 14.1 79.5 16.3 120.3 9.3 18.6-3.2 36.4-9.9 53.6-17.8 33-15.3 60.8-37.1 81.6-67.1 28.5-41 41.1-86.8 41.3-136.4 0-5.8 1.6-10 5.9-13.9 6.4-5.8 12.2-12.2 18.5-18.5-6 .8-11.6 1.6-17.2 2.2-4.7.5-7.9-1.1-9.6-4.8s-.7-7 2.9-10.3c2.3-2 4.7-3.9 6.9-6 3.4-3.2 6.7-6.5 10-9.7-4.8.6-9.1 1.8-13.5 2.7s-8.9 1.3-13.4 2c-5.8.8-10.7-.4-15.2-4.7-36.2-34.2-95.9-20-113.3 26.7-5.1 13.7-6.1 28.5-2.9 42.7 1.5 7-1.9 11.3-8.8 11.6-28.9 1.2-56.1-5.6-82.1-17.9-27.8-13.4-52.1-31.5-74.1-52.9-2.1-2.1-4.3-4.1-6.7-6.4-3.8 9.8-5.5 19.4-4.8 29.4 1.2 16.5 7.6 30.9 17.6 43.7 3.6 4.6 7.7 8.8 11.7 13.1 2.4 2.3 3.2 5.7 2.1 8.8-1 3.2-3.8 5.4-7.2 5.5-2.8.3-5.6.3-8.3 0-4.8-.7-9.4-1.9-15-3.1 1.9 6.1 3.1 12 5.4 17.5 8.8 21 25.2 33.3 46.6 39.7 5.1 1.5 7.7 4.2 7.7 8.3s-2.1 7.1-7.1 8.4c-6.5 1.5-13.2 2.3-21.1 3.6z" fill="url(#a)"/></svg>