<svg version="1.1" id="Слой_1" xmlns="http://www.w3.org/2000/svg" x="0" y="0" viewBox="0 0 409 313.2" xml:space="preserve"><style/><g id="Слой_2_00000102541814156482400040000009517375695919544220_"><g id="Слой_1-2"><g id="_21"><linearGradient id="SVGID_1_" gradientUnits="userSpaceOnUse" x1="-.13" y1="156.584" x2="409" y2="156.584"><stop offset="0" stop-color="#64c0ed"/><stop offset="1" stop-color="#0088c2"/></linearGradient><path d="M409 188c-.5 8.2-.8 16.4-1.7 24.6-1.6 14.9-2.9 29.9-5.8 44.6-3.6 18.6-13 33.9-30.2 43.4-7.9 4.2-16.6 6.6-25.5 7-28.8 1.8-57.6 4.1-86.4 4.9-34.3.9-68.6.8-103 .3-27.3-.4-54.5-1.6-81.8-2.9-12.9-.6-25.7-2-37.5-8.2-14.2-7.5-22.5-19.6-27.5-34.6C4.1 250.5 3 233.2 1.8 216c-2.2-32.8-2.5-65.7-1-98.5.9-20.4 1.6-40.9 6.4-61 4.5-18.4 13.2-33.8 30.4-43.4 8-4.4 16.8-6.8 25.9-7.1 44.6-2.1 89.3-4.6 133.9-5.8 26.8-.7 53.7.5 80.6 1.4 22.2.7 44.4 1.9 66.6 3.1 28.2 1.5 49.6 17.5 57.1 49.8 4.8 20.5 5.2 41.4 6.5 62.2.2 2.5.4 5 .7 7.5l.1 63.8zM176.2 13.7c-22.5.9-57.3 2.2-92.1 3.6-8.6.4-17.4.5-25.9 1.8C37.3 22.4 26 35.9 20.8 55.6s-6.4 40.2-6.9 60.5c-.6 31.6-.1 63.3.8 94.9.4 16 1.6 32.1 6.1 47.8 3.8 13.1 9.9 24.3 22.8 30.6 7.5 3.7 15.5 4.9 23.5 5.4 21.2 1.3 42.5 2.6 63.7 3.5 68.9 2.7 137.8 2.1 206.7-1.9 9.2-.5 18.3-1.2 26.6-5.8 13-7.1 19.3-18.8 23.2-32.4 5.5-19.4 6.2-39.4 7.1-59.3 1.8-36.8 1.3-73.7-1.5-110.5-1.2-15-3.8-29.8-9.4-43.8-5.5-13.8-15.9-22.2-30.3-25-7.5-1.5-15.3-1.4-23-1.9-47.1-3-94.3-4.1-154-4z" fill="url(#SVGID_1_)"/><linearGradient id="SVGID_00000008129056067293715430000012156518738399113129_" gradientUnits="userSpaceOnUse" x1="149.585" y1="161.892" x2="292.944" y2="161.892"><stop offset="0" stop-color="#64c0ed"/><stop offset="1" stop-color="#0088c2"/></linearGradient><path d="M149.6 161.9V90.5c-.1-2.1.3-4.2 1.2-6.1 1.9-3.8 5.7-4.4 9.9-2 12.9 7.5 25.7 15 38.6 22.5 29.3 17.1 58.5 34.2 87.7 51.3 1.9 1 3.5 2.3 4.8 4 2.5 3.7.8 8-4.1 10.7-17.2 9.6-34.3 19.2-51.5 28.7l-73.8 41.1c-8 4.5-12.8 1.7-12.8-7.4v-71.4zm122.9 1.8l-109-64v124.6l109-60.6z" fill="url(#SVGID_00000008129056067293715430000012156518738399113129_)"/></g></g></g></svg>